<?xml version="1.0" encoding="UTF-8" standalone="no"?>
<!-- Created with Inkscape (http://www.inkscape.org/) -->

<svg
   version="1.1"
   id="svg886"
   width="192"
   height="192"
   viewBox="0 0 192 192"
   sodipodi:docname="icon.svg"
   inkscape:version="1.1.2 (0a00cf5339, 2022-02-04)"
   xmlns:inkscape="http://www.inkscape.org/namespaces/inkscape"
   xmlns:sodipodi="http://sodipodi.sourceforge.net/DTD/sodipodi-0.dtd"
   xmlns="http://www.w3.org/2000/svg"
   xmlns:svg="http://www.w3.org/2000/svg">
  <defs
     id="defs890">
    <filter
       style="color-interpolation-filters:sRGB;"
       inkscape:label="Colorize"
       id="filter3399"
       x="0"
       y="0"
       width="1"
       height="1">
      <feComposite
         in2="SourceGraphic"
         operator="arithmetic"
         k1="0"
         k2="1"
         result="composite1"
         id="feComposite3385" />
      <feColorMatrix
         in="composite1"
         values="0"
         type="saturate"
         result="colormatrix1"
         id="feColorMatrix3387" />
      <feFlood
         flood-opacity="1"
         flood-color="rgb(215,136,33)"
         result="flood1"
         id="feFlood3389" />
      <feBlend
         in="flood1"
         in2="colormatrix1"
         mode="multiply"
         result="blend1"
         id="feBlend3391" />
      <feBlend
         in2="blend1"
         mode="screen"
         result="blend2"
         id="feBlend3393" />
      <feColorMatrix
         in="blend2"
         values="1"
         type="saturate"
         result="colormatrix2"
         id="feColorMatrix3395" />
      <feComposite
         in="colormatrix2"
         in2="SourceGraphic"
         operator="in"
         k2="1"
         result="composite2"
         id="feComposite3397" />
    </filter>
  </defs>
  <sodipodi:namedview
     id="namedview888"
     pagecolor="#ffffff"
     bordercolor="#666666"
     borderopacity="1.0"
     inkscape:pageshadow="2"
     inkscape:pageopacity="0.0"
     inkscape:pagecheckerboard="0"
     showgrid="false"
     inkscape:zoom="5.1354167"
     inkscape:cx="102.81542"
     inkscape:cy="116.54361"
     inkscape:window-width="1909"
     inkscape:window-height="2120"
     inkscape:window-x="0"
     inkscape:window-y="0"
     inkscape:window-maximized="1"
     inkscape:current-layer="g892" />
  <g
     inkscape:groupmode="layer"
     inkscape:label="Image"
     id="g892">
    <g
       id="g2002"
       transform="translate(-2.3682604,0.82216502)"
       style="filter:url(#filter3399)">
      <path
         style="fill:#d0d0d0;fill-opacity:1"
         d="M 81.341573,184.52053 C 49.533614,178.74866 23.369831,156.40798 12.811837,126.00448 7.9285999,111.9424 6.5120405,91.684111 9.4445307,77.848478 15.69762,48.346095 38.410058,22.84484 67.277686,12.914099 78.731318,8.9739393 88.545829,7.6392541 101,8.3281676 c 38.00657,2.1023664 69.32739,27.4731134 80.05335,64.8454674 1.47317,5.13298 2.25369,11.368029 2.60707,20.826365 0.456,12.20465 0.25918,14.44722 -2.05131,23.3718 -4.74143,18.3145 -13.13321,32.39918 -26.99751,45.31235 -19.62363,18.2774 -47.34843,26.54011 -73.270027,21.83638 z m 79.059857,-61.9149 c 6.55874,-2.74042 8.52027,-9.25999 4.272,-14.1989 -2.02707,-2.35661 -3.30645,-2.78495 -9.9383,-3.3274 -8.18241,-0.66927 -9.30813,-1.14373 -8.39005,-3.5362 0.43082,-1.1227 2.03857,-1.54313 5.90103,-1.54313 6.22708,0 9.3603,-1.81375 11.34696,-6.568507 1.38702,-3.319603 0.97098,-8.964855 -0.73854,-10.021401 C 161.34064,82.474461 162.99521,81 165.55902,81 c 2.49894,0 3.07889,-1.444863 1.54908,-3.859331 -0.6966,-1.099436 -1.85025,-1.147235 -6.03391,-0.25 C 158.22924,77.500801 154.10136,78 151.90112,78 c -4.65725,0 -9.12644,2.055909 -11.34042,5.216795 -2.28021,3.255458 -2.00772,9.678475 0.52498,12.374405 1.68201,1.790425 1.87555,2.612718 1,4.24871 -1.63531,3.05559 -1.31291,5.93286 0.91432,8.16009 1.60784,1.60784 3.33333,2 8.8,2 7.21738,0 9.2,0.97827 9.2,4.53948 0,4.46571 -12.12951,6.33101 -16,2.46052 -1.1,-1.1 -2,-2.45 -2,-3 0,-0.55 -1.125,-1 -2.5,-1 -4.76845,0 -2.64564,7.16092 2.82874,9.54224 4.13017,1.7966 12.84708,1.82896 17.07269,0.0634 z M 150,96.280562 c -4.31632,-1.558299 -6.5316,-7.323674 -4.21434,-10.968001 1.49338,-2.348606 6.20906,-3.423825 9.05662,-2.064993 2.22096,1.059821 2.70672,2.020846 2.95588,5.847923 0.18719,2.875232 -0.18499,4.966757 -1,5.619708 -1.83011,1.466197 -5.03118,2.203286 -6.79816,1.565363 z M 86,109.15765 C 91.23316,105.41758 94.387649,94.341751 92.89999,84.930879 91.076874,73.397911 85.247403,67.4723 76.524892,68.28572 c -4.308491,0.401789 -5.468257,1.019665 -8.65559,4.61134 -6.436227,7.252721 -7.670554,20.684876 -2.821318,30.70206 3.816052,7.88291 13.941178,10.56909 20.952016,5.55853 z M 74.20557,105.9524 C 70.787204,104.58051 69,99.165904 69,90.181342 69,79.928206 70.327348,76.178999 74.587492,74.398997 78.41194,72.801041 81.438349,73.592174 84.5,76.990225 c 1.743723,1.935314 2,3.626334 2,13.196792 v 10.977043 l -3.265777,2.91797 c -3.406343,3.04357 -5.186504,3.41234 -9.028653,1.87037 z M 30.087606,100.25 c 0.04818,-5.9125 0.388429,-13 0.756102,-15.75 l 0.668497,-5 2.268968,8.5 c 1.247933,4.675 2.541566,10.1875 2.87474,12.25 0.555111,3.43639 0.876522,3.75 3.84326,3.75 2.986685,0 3.276568,-0.29135 3.741935,-3.76093 0.277446,-2.068509 1.574197,-8.256009 2.881669,-13.749999 L 49.5,76.5 l 0.622778,11 c 0.342528,6.05 0.680028,13.8125 0.75,17.25 L 51,111 h 3.143599 3.1436 l -0.607222,-6.75 c -0.333972,-3.7125 -0.915621,-13.1625 -1.292553,-21 L 54.702093,69 H 50.351047 C 46.608617,69 46,69.291421 46,71.083387 c 0,1.145863 -0.851889,5.533363 -1.893087,9.75 -1.041197,4.216637 -2.188098,8.957212 -2.548667,10.534612 -0.36057,1.577399 -0.878969,2.644612 -1.151997,2.371583 C 40.133221,93.466554 39.01359,89.475954 37.918182,84.871583 33.906044,68.007212 34.393349,69 30.127695,69 H 26.332478 L 25.154079,88.25 C 23.627466,113.18835 23.449904,111 27,111 h 3 l 0.08761,-10.75 z M 120,109 c 0,-1.55556 -0.66667,-2 -3,-2 h -3 v -7.032119 c 0,-7.789088 1.77654,-13.242737 4.8496,-14.88739 C 122.43311,83.162653 124,83.746618 124,87 c 0,2.533333 0.38889,3 2.5,3 2.33333,0 2.5,-0.333333 2.5,-5 0,-2.75 0.007,-5.3375 0.0151,-5.75 0.008,-0.4125 -1.97489,-0.885449 -4.40712,-1.050998 -3.76467,-0.25624 -4.95651,0.168084 -8.01513,2.853592 L 113,84.207184 V 81.603592 C 113,79.145948 112.71972,79 108,79 c -4.33333,0 -5,0.266667 -5,2 0,1.473352 0.66667,2 2.53174,2 h 2.53173 l -0.28173,11.75 c -0.27156,11.32558 -0.36301,11.76154 -2.53174,12.06955 -1.44596,0.20536 -2.25,1.0094 -2.25,2.25 0,1.75586 0.76875,1.93045 8.5,1.93045 7.83333,0 8.5,-0.15686 8.5,-2 z"
         id="path2014" />
      <path
         style="fill:#b9b9b9;fill-opacity:1"
         d="M 77.29768,182.55249 C 61.214392,178.90288 45.279781,170.03007 33.796676,158.32999 23.403242,147.74016 19.010901,141.11421 13.966528,128.41574 7.8225412,112.94915 6.2882763,89.521098 10.435674,74.5 19.223374,42.672601 42.560872,19.542673 74.671433,10.83557 86.267918,7.6910661 105.29486,7.7208924 117.48664,10.902686 142.7459,17.494815 163.461,34.384598 174.63763,57.5 c 17.05627,35.275587 10.03561,75.5891 -17.77345,102.05733 -10.72567,10.20854 -23.33364,17.53587 -37.04318,21.52828 -9.52016,2.7724 -33.174235,3.58837 -42.52332,1.46688 z m 83.71126,-60.17274 C 165.63377,120.52926 167,118.55902 167,113.74006 c 0,-5.44567 -3.59854,-8.05989 -11.78231,-8.55947 -3.69473,-0.22555 -7.25344,-0.84135 -7.90825,-1.36845 -2.38075,-1.91644 -0.24388,-3.31257 5.19203,-3.39225 5.90354,-0.0865 8.5345,-1.654984 11.10091,-6.61787 1.76066,-3.404738 1.75621,-5.591072 -0.0183,-8.992385 -1.35674,-2.600555 -1.30366,-2.712314 1.59001,-3.347871 2.64771,-0.581535 2.91675,-0.963705 2.32847,-3.307585 -0.36582,-1.457544 -0.74166,-2.726608 -0.83519,-2.820142 -0.0935,-0.09353 -2.63002,0.468043 -5.63664,1.24795 C 158.02411,77.361894 153.83986,78 151.73241,78 c -4.50279,0 -8.98313,2.092162 -11.17171,5.216795 -2.19546,3.134463 -1.97182,9.397101 0.4574,12.808629 1.24566,1.749358 1.62842,3.075006 1,3.463387 C 141.45815,99.834884 141,101.64096 141,103.50231 141,108.233 143.86393,110 151.53138,110 c 6.68608,0 9.89214,1.56234 9.3185,4.54098 -0.47902,2.48738 -4.4123,4.42577 -9.01809,4.44428 -4.97643,0.02 -6.82132,-0.82752 -7.88364,-3.62164 C 142.75245,112.21871 138,111.98071 138,115.06574 c 0,3.06856 1.71232,5.71333 4.77514,7.37546 3.64196,1.97642 13.22135,1.94413 18.2338,-0.0614 z M 146.5567,93.777494 c -2.0894,-2.983049 -1.96674,-7.096436 0.27204,-9.122506 2.5998,-2.352784 8.81915,-2.181427 10.13608,0.279271 1.53036,2.859513 1.2569,7.701162 -0.53625,9.494312 -2.39012,2.390118 -8.00092,2.02007 -9.87187,-0.651077 z M 85.913425,109.27126 c 7.407878,-5.37054 9.999397,-21.814167 5.020786,-31.857732 -4.574064,-9.227455 -13.996489,-12.065685 -21.743236,-6.549514 -8.053787,5.734802 -9.653052,25.203718 -2.895892,35.253616 3.923373,5.83522 13.742334,7.41361 19.618342,3.15363 z m -13.124058,-4.30369 c -2.390815,-1.42961 -3.777243,-7.200493 -3.78379,-15.749689 -0.0067,-8.717736 1.854549,-13.893687 5.307696,-14.760372 4.332182,-1.087308 7.903204,-0.07283 10.08783,2.865821 C 86.199933,79.743026 86.5,81.555336 86.5,90 c 0,8.446723 -0.299782,10.25638 -2.099971,12.67667 -1.590386,2.13821 -3.046361,2.88284 -6,3.06856 -2.145016,0.13488 -4.669814,-0.21507 -5.610662,-0.77766 z M 30.12421,102.25 c 0.06832,-4.8125 0.419681,-11.9 0.780812,-15.75 l 0.656601,-7 2.943746,12.25 2.943747,12.25 h 3.092049 3.092049 l 1.79164,-9.25 c 0.985402,-5.0875 2.370745,-11.05 3.07854,-13.25 l 1.286899,-4 0.110027,7 c 0.06052,3.85 0.400569,11.3875 0.755677,16.75 l 0.645649,9.75 h 2.992657 2.992656 l -0.614525,-8.75 c -0.337988,-4.8125 -0.916302,-14.2625 -1.285142,-21 L 54.716674,69 H 50.547139 46.377604 L 44.039066,79.75 C 41.200879,92.796824 40.427632,94.601943 39.440211,90.485866 39.046251,88.84364 37.886038,84.165517 36.86196,80.090037 35.837882,76.014558 35,71.852058 35,70.840037 35,69.333227 34.206336,69 30.617488,69 h -4.382513 l -0.590256,7.25 c -0.324641,3.9875 -0.881784,13.4375 -1.238096,21 L 23.758783,111 H 26.879391 30 Z m 90.69534,6.5 c -0.24492,-1.7245 -1.0786,-2.32319 -3.56955,-2.56336 L 114,105.87328 v -6.486298 c 0,-8.870546 3.43706,-15.267711 8.25,-15.355179 1.28485,-0.02335 1.75,0.765605 1.75,2.968197 0,2.501209 0.39961,3 2.40349,3 2.17996,0 2.44216,-0.488252 2.81941,-5.25 0.22876,-2.8875 0.24563,-5.5875 0.0375,-6 -0.20814,-0.4125 -2.36122,-0.75 -4.78462,-0.75 -3.48324,0 -5.13185,0.637141 -7.87053,3.041737 l -3.46435,3.041736 -0.32045,-2.791736 c -0.29472,-2.567568 -0.70186,-2.816211 -5.07045,-3.096528 -4.5067,-0.28918 -4.75,-0.173932 -4.75,2.25 C 103,82.503653 103.4857,83 105.5,83 H 108 V 94.5 106 h -2.5 c -2,0 -2.5,0.5 -2.5,2.5 0,2.4829 0.062,2.5 9.06955,2.5 8.83348,0 9.06123,-0.0586 8.75,-2.25 z"
         id="path2012" />
      <path
         style="fill:#a3a3a3;fill-opacity:1"
         d="M 79,182.56496 C 45.342658,175.41218 19.737587,151.33428 10.871628,118.5 7.9147219,107.54937 7.6552687,85.687282 10.363259,75.663806 21.266362,35.306584 55.317934,8.6666219 96,8.6666219 c 24.97591,0 46.33373,9.2931141 63.65245,27.6961471 11.73702,12.471875 18.10374,24.431981 21.95648,41.246047 2.56998,11.215854 2.38942,30.281394 -0.38341,40.484574 -8.38786,30.86481 -31.45549,54.19157 -62.22552,62.92453 -9.70196,2.75355 -30.531938,3.55917 -40,1.54704 z m 82.92947,-60.52898 c 4.66789,-2.38138 6.50022,-6.50492 4.91333,-11.05709 -1.42246,-4.08045 -4.06437,-5.35832 -12.33335,-5.96555 -5.61696,-0.41247 -7.05595,-0.8572 -7.32333,-2.26334 -0.27386,-1.44021 0.4058,-1.75 3.83943,-1.75 10.48759,0 16.39952,-8.152665 12.50889,-17.25 -0.57334,-1.340626 -0.26934,-1.75 1.29955,-1.75 2.64429,0 3.5123,-1.484141 2.71828,-4.647757 -0.47088,-1.87614 -1.07951,-2.363585 -2.34414,-1.877401 -0.93947,0.361176 -5.53313,1.114247 -10.20813,1.673492 -4.675,0.559246 -9.50623,1.66092 -10.73607,2.448165 -5.54148,3.547211 -7.17145,11.332171 -3.43173,16.390408 1.4281,1.931607 1.71793,3.062963 0.975,3.805894 -1.63753,1.637529 -1.24953,6.060949 0.72279,8.240339 1.33852,1.47905 3.16763,1.99158 7.375,2.06654 8.21586,0.14637 10.59501,1.02569 10.59501,3.91587 0,1.58313 -0.86816,2.8646 -2.5,3.69018 -5.19943,2.63047 -14,0.94518 -14,-2.68098 C 144,113.44169 143.34556,113 141,113 c -2.45518,0 -3,0.41361 -3,2.27749 0,2.88808 2.57892,6.60984 5.357,7.73093 4.11008,1.65862 14.47939,1.1157 18.57247,-0.97244 z M 147,94 c -2.3975,-2.397502 -2.56662,-5.746031 -0.4433,-8.777494 C 147.71381,83.570509 149.11661,83 152.02152,83 156.39232,83 158,84.823017 158,89.779271 158,95.444575 151.09431,98.094308 147,94 Z m -58.966526,13.32977 c 4.89932,-5.25233 6.816311,-14.3238 4.99215,-23.623551 C 90.891945,72.828521 86.231998,67.996615 77.881966,68.003738 68.130023,68.012057 62.897255,75.03789 62.244167,89 c -0.364001,7.781836 -0.158765,8.964694 2.42912,14 3.545946,6.89943 7.62757,9.30075 14.76129,8.68443 4.188444,-0.36185 5.488641,-1.0203 8.598897,-4.35466 z m -15.435288,-2.87444 c -4.282683,-4.28268 -4.91834,-21.860542 -0.981973,-27.154596 2.878276,-3.87102 8.412015,-4.363415 11.73155,-1.04388 4.371498,4.371498 4.669214,21.909258 0.462707,27.256966 -2.306888,2.93273 -8.685445,3.46835 -11.212284,0.94151 z M 30.122536,106.25 c 0.0674,-2.6125 0.410413,-9.475 0.762262,-15.25 l 0.639725,-10.5 2.835502,11.75 2.835502,11.75 h 3.243107 c 3.107368,0 3.288685,-0.21974 4.332096,-5.25 0.598945,-2.8875 1.905958,-8.85 2.904474,-13.25 l 1.815484,-8 0.61923,16 c 0.340576,8.8 0.680172,16.3375 0.754656,16.75 0.07448,0.4125 1.498178,0.75 3.163764,0.75 h 3.028338 L 56.411334,93.25 C 55.553393,69.65247 55.327115,68.587546 51.083797,68.177158 49.247835,67.999594 47.330873,68.269127 46.82388,68.77612 46.316888,69.283112 45.02135,74.009148 43.944908,79.278422 40.711286,95.107273 40.652976,95.122436 37.32443,81 L 34.37828,68.5 30.24473,68.195218 c -3.98682,-0.293962 -4.151655,-0.18747 -4.643611,3 -0.280533,1.81763 -0.868049,11.518118 -1.30559,21.556641 L 23.5,111.00372 l 3.25,-0.002 c 3.193051,-0.002 3.252147,-0.0851 3.372536,-4.75186 z M 121,108.5 c 0,-2.19048 -0.43333,-2.5 -3.5,-2.5 H 114 v -5.9349 C 114,93.352858 115.17605,89.521797 118.24093,86.25 121.52798,82.741028 124,83.277577 124,87.5 c 0,3.066667 0.30952,3.5 2.5,3.5 2.17284,0 2.5,-0.441667 2.5,-3.375 0,-1.85625 0.28125,-4.78125 0.625,-6.5 L 130.25,78 h -4.69074 c -5.24362,0 -8.2284,1.208362 -10.78702,4.36704 -1.7205,2.123993 -1.72786,2.119297 -1.75,-1.11704 C 113.00013,78.019631 112.9698,78 108,78 c -4.88889,0 -5,0.06667 -5,3 0,2.533333 0.38889,3 2.5,3 h 2.5 v 11 11 h -2.5 c -2,0 -2.5,0.5 -2.5,2.5 0,2.48148 0.0667,2.5 9,2.5 8.93333,0 9,-0.0185 9,-2.5 z"
         id="path2010" />
      <path
         style="fill:#8c8c8c;fill-opacity:1"
         d="M 79.701122,182.48177 C 68.67115,180.38802 56.884655,175.47381 47,168.84751 1.7852143,138.5372 -4.9382707,74.743794 33,36.013458 44.719453,24.04933 57.917956,16.388677 74.671433,11.826595 85.93968,8.7581768 106.27322,8.7236747 117.5655,11.753812 c 25.52113,6.848269 45.00145,22.51081 56.54189,45.460732 7.37432,14.664975 10.80371,33.875623 8.8566,49.612736 -4.39996,35.56188 -30.10599,65.0283 -64.73442,74.20405 -10.36732,2.74711 -28.167437,3.41721 -38.528448,1.45044 z m 81.700308,-59.87614 c 6.954,-2.90557 8.6555,-9.70255 3.67549,-14.68255 C 162.49625,105.34241 161.45158,105 156.15871,105 149.2591,105 147,104.35696 147,102.39301 147,101.40282 148.33944,101 151.63197,101 c 10.26674,0 15.83097,-8.064119 11.90247,-17.25 -0.59576,-1.393047 -0.25066,-1.75 1.6919,-1.75 3.21066,0 3.51306,-0.415496 2.97426,-4.0866 -0.40614,-2.767173 -0.73477,-3.031363 -3.07764,-2.474109 -1.44263,0.343131 -6.06494,1.024568 -10.27181,1.514305 -9.60805,1.118509 -13.56111,3.107997 -15.52772,7.814746 -1.67979,4.020303 -0.64922,9.886461 2.14413,12.204738 1.27431,1.05758 1.25982,1.513363 -0.11483,3.61134 -1.93593,2.9546 -1.18323,6.448 1.78469,8.28307 1.21643,0.75211 5.3483,1.65211 9.18193,2 7.56736,0.68669 10.23536,2.55428 7.81509,5.47052 C 156.98398,120.13408 144,118.99493 144,114.92245 144,113.39005 143.28601,113 140.48095,113 c -3.33069,0 -3.48408,0.1472 -2.86569,2.75 0.77569,3.26488 3.11786,6.17218 5.88474,7.30464 3.25555,1.33248 14.30079,1.05544 17.90143,-0.44901 z m -12.5526,-27.275922 c -0.90814,-0.241059 -2.22581,-1.825613 -2.92816,-3.521231 -1.81407,-4.379545 0.3711,-8.185596 4.95407,-8.628812 C 155.0178,82.778992 158,85.279901 158,89.154988 c 0,4.902279 -3.93702,7.558773 -9.15117,6.17472 z M 30.175877,107 c 0.371732,-2.475 0.722916,-9.225 0.780409,-15 0.111915,-11.241657 1.000694,-11.684309 3.011779,-1.5 2.600624,13.16979 2.758884,13.5 6.470098,13.5 h 3.361075 l 1.56021,-7.25 c 0.858116,-3.9875 1.895884,-9.05 2.306151,-11.25 l 0.745941,-4 0.720107,4.5 c 0.396059,2.475 0.759607,8.325 0.807885,13 0.119893,11.60989 0.582445,13 4.325699,13 h 3.031968 L 56.591763,92.25 C 56.203773,81.3875 55.638119,71.4875 55.334755,70.25 54.868638,68.348588 54.113245,68 50.45898,68 c -4.623996,0 -4.708116,0.09932 -5.928785,7 -0.340516,1.925 -1.34414,6.625459 -2.230278,10.445465 C 40.402393,93.625413 40.089816,93.187918 36.801732,77.75 L 34.725104,68 h -4.393937 c -2.630183,0 -4.558237,0.501758 -4.803248,1.25 -0.654269,1.998077 -2.347838,41.16601 -1.818502,42.05731 0.263701,0.44402 1.674459,0.66902 3.135019,0.5 2.313683,-0.26775 2.742577,-0.88665 3.331441,-4.80731 z m 54.240878,3.85597 C 90.654638,108.01381 94.628099,96.792319 93.43545,85.3862 92.558623,77.000501 89.63391,72.062753 83.840777,69.187657 78.078487,66.327868 73.270332,66.945737 68.46682,71.163276 58.440377,79.96661 60.456645,106.47814 71.5,111.04597 c 2.957063,1.22312 10.04409,1.11888 12.916755,-0.19 z M 72.520819,103.61173 C 69.581436,100.67235 68.656,96.093743 69.168396,87.025594 69.750824,76.718052 73.474013,72.647233 80.66761,74.452712 c 6.558774,1.646147 8.224428,23.65525 2.242918,29.636758 -2.664839,2.66484 -7.467987,2.44398 -10.389709,-0.47774 z M 120.81642,108.75 c 0.29285,-2.54509 0.0507,-2.75 -3.25,-2.75 H 114 v -6.098871 c 0,-6.67729 2.00819,-12.093034 5.35287,-14.435735 3.43363,-2.405005 4.81255,-1.853384 4.4611,1.784606 -0.2796,2.894191 -0.0129,3.284642 2.43603,3.566422 2.15801,0.248307 2.75,-0.09837 2.75,-1.610428 0,-1.059768 0.28191,-3.983592 0.62646,-6.497385 0.62574,-4.565275 0.62257,-4.571265 -2.7604,-5.205914 -3.90302,-0.73221 -8.3828,0.709454 -11.61606,3.738231 L 113,83.348628 V 80.674314 C 113,78.09552 112.80118,78 107.43358,78 c -5.4825,0 -5.56165,0.04146 -5.25,2.75 0.24237,2.106403 0.91812,2.820011 2.8874,3.049148 l 2.57098,0.299147 0.2073,10.950853 L 108.05656,106 h -2.52828 C 103.37855,106 103,106.45501 103,109.03893 v 3.03894 l 8.75,-0.28894 c 8.72084,-0.28797 8.75105,-0.29809 9.06642,-3.03893 z"
         id="path2008" />
      <path
         style="fill:#767676;fill-opacity:1"
         d="m 83.5,182.95936 c -10.858357,-1.68987 -31.251176,-9.1297 -33.063764,-12.06253 -0.280333,-0.45359 2.544333,0.68283 6.277034,2.52537 10.862,5.36172 27.414565,9.5778 37.602942,9.5778 1.611526,0 -5.692001,-7.88978 -28.32236,-30.59578 -16.771619,-16.82767 -33.104714,-32.80267 -36.295768,-35.5 C 24.064181,112.14202 23.980757,112 26.817241,112 c 2.598604,0 2.989501,-0.41398 3.540911,-3.75 0.34091,-2.0625 0.669645,-7.125 0.730522,-11.25 0.186727,-12.652512 1.24258,-13.812896 3.253939,-3.576083 0.96413,4.906941 1.983016,9.293943 2.264192,9.748893 C 36.887981,103.62777 38.628984,104 40.4757,104 h 3.357665 l 2.083318,-8.873785 c 1.145824,-4.880583 2.155125,-9.943083 2.242891,-11.25 0.08777,-1.306918 0.650266,4.373785 1.25,12.623785 L 50.5,111.5 h 3.5 3.5 l -0.02012,-5 C 57.468811,103.75 57.096629,94.525 56.652807,86 l -0.806948,-15.5 3.650136,3.589732 3.650137,3.589733 -1.120377,6.178503 c -1.87523,10.34127 0.559226,19.814432 6.412766,24.953912 3.194067,2.80443 4.332762,3.18812 9.461417,3.18812 6.638425,0 9.496975,-1.67008 13.248636,-7.7404 2.013604,-3.25808 2.288721,-4.983818 2.269112,-14.233601 C 93.403472,83.321096 92.919327,78.592462 92.08401,77 91.362762,75.625 93.973804,77.637931 97.886325,81.47318 102.31099,85.810463 105,87.82649 105,86.806514 c 0,-0.901916 -0.5625,-1.866821 -1.25,-2.144233 -0.6875,-0.277413 -0.2375,-0.539913 1,-0.583334 C 106.95175,84.001693 107,84.235867 107,95 v 11 h -2.5 c -2.11111,0 -2.5,0.46667 -2.5,3 v 3 h 9.5 9.5 v -3 c 0,-2.7619 -0.27778,-3 -3.5,-3 H 114 v -6.039838 c 0,-6.62469 2.58966,-13.135003 5.93752,-14.926726 3.26333,-1.746478 3.96865,-1.230053 3.36877,2.466564 -0.54388,3.35151 -0.44009,3.5 2.44624,3.5 3.30415,0 4.20872,-1.680601 4.23382,-7.865989 L 130,79.768023 l 3.91535,3.365988 c 2.50605,2.154421 3.94717,4.265849 4.00374,5.865989 0.0486,1.375 0.99203,3.982133 2.09648,5.793629 1.51687,2.487933 1.76058,3.75612 0.99626,5.184259 -3.38282,6.320862 0.55779,10.125152 11.35967,10.966732 6.83626,0.53261 7.14125,0.66586 7.43962,3.25038 0.27606,2.39136 -0.14433,2.81764 -3.73117,3.78347 -5.14143,1.38445 -10.25131,0.15774 -11.56708,-2.77686 -0.72514,-1.61729 -1.8531,-2.20161 -4.25,-2.20161 -3.64574,0 -3.865,0.62314 -1.88588,5.35985 2.10859,5.04656 10.02533,7.3906 18.68705,5.53299 10.61752,-2.27704 14.4132,-10.18725 7.88806,-16.43873 -2.70394,-2.59054 -3.88891,-2.96255 -10.5,-3.2964 C 148.93538,103.87913 147,103.42022 147,102.3907 c 0,-0.99189 1.36216,-1.39177 4.75,-1.39444 5.61094,-0.004 10.84575,-2.802792 12.27493,-6.561819 1.26967,-3.339496 1.24261,-8.066017 -0.0601,-10.500182 C 163.04705,82.219392 163.2739,82 165.96482,82 c 2.48053,0 3.03542,-0.411165 3.03652,-2.25 0.001,-1.830414 1.29753,-0.851381 6.95211,5.25 l 6.95077,7.5 0.0479,8.79284 0.0479,8.79284 -4.35567,4.70716 c -2.39563,2.58894 -4.64549,5.90998 -4.99971,7.38009 -1.01105,4.19615 -5.61676,8.92089 -11.10995,11.3971 -3.90637,1.7609 -10.07518,7.32987 -27.52634,24.84974 C 122.63792,170.8389 112.76874,181 113.07683,181 c 1.7172,0 12.37562,-3.60158 18.42317,-6.22537 10.10436,-4.38386 20.55865,-11.96247 29.25298,-21.20632 4.17378,-4.43757 6.65376,-6.71831 5.51108,-5.06831 -6.64004,9.58804 -21.11887,21.25291 -33.45366,26.95194 -14.6712,6.77851 -34.548483,9.80479 -49.3104,7.50742 z M 45.860784,167.94065 43.5,165.8813 l 2.75,1.67436 c 1.5125,0.9209 2.75,1.84761 2.75,2.05935 0,0.78084 -0.835488,0.33522 -3.139216,-1.67436 z M 40.872445,164.25 c -1.243871,-1.58606 -1.208501,-1.62143 0.377555,-0.37756 0.9625,0.75485 1.75,1.54235 1.75,1.75 0,0.82304 -0.821186,0.29331 -2.127555,-1.37244 z m -6.926278,-6 L 30.5,154.5 l 3.75,3.44617 c 2.0625,1.89539 3.75,3.58289 3.75,3.75 0,0.76362 -0.846216,0.0443 -4.053833,-3.44617 z m -7.073722,-8 c -1.243871,-1.58606 -1.208501,-1.62143 0.377555,-0.37756 0.9625,0.75485 1.75,1.54235 1.75,1.75 0,0.82304 -0.821186,0.29331 -2.127555,-1.37244 z M 171,140 c 0.5887,-1.1 1.29537,-2 1.57037,-2 0.275,0 0.0183,0.9 -0.57037,2 -0.5887,1.1 -1.29537,2 -1.57037,2 -0.275,0 -0.0183,-0.9 0.57037,-2 z M 74.307745,104.80527 C 67.827901,101.674 67.061788,81.146272 73.223377,75.75 c 3.936011,-3.447128 9.723964,-1.648903 11.737308,3.646595 1.402806,3.689659 1.318944,17.188108 -0.131708,21.199815 -1.696109,4.69051 -5.979001,6.40381 -10.521232,4.20886 z M 149,94.712454 c -2.83284,-1.425554 -3.8461,-6.262979 -2.02473,-9.666248 1.64128,-3.066762 7.47459,-2.815454 9.59006,0.413154 2.21986,3.387944 1.07133,8.348085 -2.22306,9.600607 -2.96665,1.12792 -2.32772,1.169481 -5.34227,-0.347513 z M 39.17296,87.25 C 36.159929,73.764109 35.802401,71.864266 36.202287,71.464379 c 0.235217,-0.235216 2.065664,1.251574 4.067661,3.303977 L 43.909942,78.5 l -1.782011,7 -1.782011,7 z"
         id="path2006" />
      <path
         style="fill:#606060;fill-opacity:1"
         d="m 97.75,183.33772 c 0.6875,-0.27741 1.8125,-0.27741 2.5,0 0.6875,0.27741 0.125,0.50439 -1.25,0.50439 -1.375,0 -1.9375,-0.22698 -1.25,-0.50439 z M 39.269032,104.30701 c 0.972967,-0.25354 2.322967,-0.23687 3,0.037 0.677032,0.27393 -0.119032,0.48137 -1.769032,0.46099 -1.65,-0.0204 -2.203936,-0.2445 -1.230968,-0.49804 z M 149.75,101.29427 c 1.2375,-0.23836 3.2625,-0.23836 4.5,0 1.2375,0.23835 0.225,0.43337 -2.25,0.43337 -2.475,0 -3.4875,-0.19502 -2.25,-0.43337 z M 121.8125,84.316886 c 0.72187,-0.288871 1.58437,-0.253344 1.91667,0.07895 0.33229,0.332292 -0.25834,0.568641 -1.3125,0.52522 -1.16495,-0.04798 -1.4019,-0.284941 -0.60417,-0.604167 z M 76.269032,74.307009 c 0.972967,-0.253543 2.322967,-0.236869 3,0.03705 C 79.946064,74.617986 79.15,74.825431 77.5,74.805051 75.85,74.784672 75.296064,74.560553 76.269032,74.307009 Z"
         id="path2004" />
    </g>
  </g>
</svg>
